<?xml version="1.0" standalone="no"?>
<!DOCTYPE svg PUBLIC "-//W3C//DTD SVG 20010904//EN"
 "http://www.w3.org/TR/2001/REC-SVG-20010904/DTD/svg10.dtd">
<svg version="1.0" xmlns="http://www.w3.org/2000/svg"
 width="300.000000pt" height="300.000000pt" viewBox="0 0 300.000000 300.000000"
 preserveAspectRatio="xMidYMid meet">
<metadata>
Created by potrace 1.14, written by Peter Selinger 2001-2017
</metadata>
<g transform="translate(0.000000,300.000000) scale(0.100000,-0.100000)"
fill="#000000" stroke="none">
<path d="M1235 2984 c-632 -114 -1110 -595 -1220 -1228 -20 -118 -20 -394 0
-512 110 -637 592 -1119 1229 -1229 118 -20 394 -20 512 0 637 110 1119 592
1229 1229 20 118 20 394 0 512 -110 637 -592 1119 -1229 1229 -114 19 -409 19
-521 -1z m566 -52 c294 -69 522 -195 729 -402 211 -211 340 -449 406 -750 15
-67 19 -127 19 -280 0 -153 -4 -213 -19 -280 -66 -301 -195 -539 -406 -750
-211 -211 -449 -340 -750 -406 -67 -15 -127 -19 -280 -19 -153 0 -213 4 -280
19 -301 66 -539 195 -750 406 -211 211 -340 449 -406 750 -15 67 -19 127 -19
280 0 153 4 213 19 280 43 198 118 375 228 540 68 103 237 281 330 348 196
143 405 232 643 277 117 21 420 14 536 -13z"/>
<path d="M1376 2533 c-3 -16 -80 -487 -171 -1048 -90 -561 -167 -1035 -170
-1052 l-6 -33 135 0 135 0 6 32 c3 18 48 339 100 712 52 373 96 680 97 682 2
1 48 -319 103 -712 l99 -714 133 0 c120 0 133 2 133 18 0 9 -74 474 -165 1032
-109 671 -171 1027 -182 1050 -25 48 -54 60 -155 60 -86 0 -86 0 -92 -27z"/>
</g>
</svg>
